# xmcd
#
# Track frame offsets: 
#        150
#        20634
#        54827
#        86928
#        115869
#        137945
#        165679
#        198800
#        232167
#        251427
#
# Disc length: 3710 seconds
#
# Revision: 1
# Processed by: cddbd v1.5.1PL2 Copyright (c) Steve Scherf et al.
# Submitted via: ExactAudioCopy v0.95b4
#
DISCID=860e7c0a
DTITLE=Melvin Rhyne - Tomorrow Yesterday Today
DYEAR=2004
DGENRE=Jazz
TTITLE0=Lover, Come Back to Me
TTITLE1=Buffalo
TTITLE2=Jingles I
TTITLE3=Darn That Dream
TTITLE4=Niambi
TTITLE5=Five Flat Minor
TTITLE6=Enchantment
TTITLE7=Tangerine
TTITLE8=Easy Living
TTITLE9=Jingles II
EXTD=YEAR: 2004
EXTT0=
EXTT1=
EXTT2=
EXTT3=
EXTT4=
EXTT5=
EXTT6=
EXTT7=
EXTT8=
EXTT9=
PLAYORDER=
